<?xml version="1.0" encoding="utf-8"?>
<!-- Generator: Adobe Illustrator 24.1.1, SVG Export Plug-In . SVG Version: 6.00 Build 0)  -->
<svg version="1.1" id="Layer_1" xmlns="http://www.w3.org/2000/svg" xmlns:xlink="http://www.w3.org/1999/xlink" x="0px" y="0px"
	 viewBox="0 0 163.27 21.67" style="enable-background:new 0 0 163.27 21.67;" xml:space="preserve">
<style type="text/css">
	.st0{fill:#FFFFFF;}
</style>
<g>
	<g>
		<path class="st0" d="M4.91,17.82H2.55c0.68,0.8,1.47,1.5,2.35,2.08V17.82z"/>
		<path class="st0" d="M4.91,16.37V1.77C1.95,3.7,0,7.04,0,10.84v0c0,2.02,0.56,3.91,1.52,5.53H4.91z"/>
		<path class="st0" d="M10.84,0L10.84,0c-1.6,0-3.11,0.35-4.48,0.97v15.4h13.79c0.96-1.62,1.52-3.51,1.52-5.53v0
			C21.67,4.85,16.82,0,10.84,0z"/>
		<path class="st0" d="M6.36,17.82v2.88c1.37,0.62,2.88,0.97,4.48,0.97h0c3.32,0,6.29-1.5,8.28-3.85H6.36z"/>
	</g>
	<path class="st0" d="M41.16,4.91c0,2.68-2.18,4.86-4.87,4.86h-6.2V1.41c1.3-0.74,2.77-1.22,4.33-1.36C34.76,0.02,35.1,0,35.44,0
		c0.36,0,0.72,0.02,1.08,0.05c0.3,0.03,0.61,0.07,0.9,0.13C39.56,0.69,41.16,2.62,41.16,4.91z"/>
	<path class="st0" d="M28.64,2.4v7.38h-3.99C24.94,6.8,26.44,4.18,28.64,2.4z"/>
	<path class="st0" d="M24.61,11.23h4.03v8.05c-0.3-0.24-0.59-0.5-0.86-0.78C25.9,16.62,24.71,14.07,24.61,11.23z"/>
	<path class="st0" d="M46.28,10.84c0,2.99-1.21,5.7-3.18,7.66c-1.96,1.96-4.67,3.17-7.66,3.17c-1.94,0-3.77-0.51-5.35-1.41v-9.03
		h6.2c3.48,0,6.32-2.83,6.32-6.31c0-0.97-0.22-1.88-0.61-2.7c0.39,0.3,0.76,0.62,1.1,0.96C45.06,5.14,46.28,7.84,46.28,10.84z"/>
	<g>
		<path class="st0" d="M60.44,11.42H54.2v8.54c1.69,1.08,3.69,1.71,5.84,1.71l0,0c0.61,0,1.21-0.05,1.79-0.15
			c2.16-0.61,3.75-2.6,3.75-4.95C65.59,13.73,63.28,11.42,60.44,11.42z"/>
		<path class="st0" d="M60.04,0c-2.15,0-4.15,0.63-5.84,1.71v8.26h6.24h0.14c2.76,0,5.01-2.25,5.01-5.01c0-2.22-1.45-4.11-3.46-4.76
			C61.45,0.07,60.76,0,60.04,0L60.04,0z"/>
		<path class="st0" d="M66.32,2c0.46,0.89,0.72,1.89,0.72,2.96c0,2.51-1.44,4.69-3.54,5.76c2.1,1.1,3.54,3.31,3.54,5.84
			c0,1.14-0.29,2.22-0.81,3.16c2.81-1.96,4.65-5.21,4.65-8.89v0C70.88,7.19,69.08,3.97,66.32,2z"/>
		<path class="st0" d="M52.75,9.97V2.82c-1.98,1.8-3.28,4.32-3.51,7.15H52.75z"/>
		<path class="st0" d="M52.75,18.85v-7.43h-3.53C49.38,14.36,50.71,16.99,52.75,18.85z"/>
	</g>
	<g>
		<polygon class="st0" points="82.46,8.06 79.19,8.06 79.19,2.2 78.57,2.2 78.57,8.64 82.46,8.64 		"/>
		<path class="st0" d="M87.88,8.14c0.43-0.43,0.66-1.05,0.66-1.85V2.2h-0.62v4.08c0,0.64-0.16,1.12-0.48,1.44
			c-0.32,0.32-0.78,0.48-1.37,0.48c-0.59,0-1.05-0.16-1.36-0.48c-0.32-0.32-0.48-0.8-0.48-1.44V2.2H83.6v4.08
			c0,0.8,0.22,1.42,0.66,1.85c0.42,0.42,1.03,0.64,1.81,0.64C86.84,8.78,87.45,8.56,87.88,8.14z"/>
		<path class="st0" d="M92.54,5.8l0.97,1.37l1.06,1.47h0.74l-2.39-3.33l2.24-3.1h-0.72l-1,1.39c-0.44,0.6-0.74,1.02-0.9,1.26
			c-0.07-0.11-0.22-0.32-0.45-0.63c-0.28-0.4-0.45-0.63-0.49-0.69l-0.93-1.3L90.67,2.2h-0.74l2.25,3.13l-2.4,3.31h0.72l1.07-1.48
			C91.97,6.61,92.3,6.15,92.54,5.8z"/>
		<path class="st0" d="M100.84,8.14c0.43-0.43,0.66-1.05,0.66-1.85V2.2h-0.62v4.08c0,0.64-0.16,1.12-0.48,1.44
			c-0.32,0.32-0.78,0.48-1.37,0.48c-0.59,0-1.05-0.16-1.36-0.48c-0.32-0.32-0.48-0.8-0.48-1.44V2.2h-0.62v4.08
			c0,0.8,0.22,1.42,0.66,1.85c0.42,0.42,1.03,0.64,1.81,0.64C99.8,8.78,100.41,8.56,100.84,8.14z"/>
		<path class="st0" d="M107.1,6.09c0.19,0.18,0.29,0.49,0.31,0.91l0.04,0.81c0.01,0.34,0.08,0.61,0.21,0.81l0.01,0.02h0.67
			l-0.05-0.08c-0.13-0.19-0.21-0.44-0.22-0.74l-0.05-1.04v0c-0.04-0.67-0.34-1.1-0.91-1.27c0.31-0.11,0.56-0.28,0.74-0.51
			c0.21-0.27,0.32-0.63,0.32-1.05c0-0.55-0.19-0.99-0.58-1.29c-0.38-0.3-0.9-0.46-1.54-0.46h-2.67v6.44h0.62V5.82h2.15
			C106.6,5.82,106.91,5.91,107.1,6.09z M107.52,3.98c0,0.41-0.13,0.73-0.37,0.94c-0.25,0.22-0.6,0.33-1.04,0.33h-2.1V2.78h2.04
			c0.47,0,0.83,0.1,1.09,0.31C107.39,3.29,107.52,3.59,107.52,3.98z"/>
		<path class="st0" d="M111.6,8.64h0.62v-2.7l2.5-3.74h-0.72l-1.08,1.62l0,0.01c-0.01,0.03-0.09,0.15-0.15,0.24
			c-0.09,0.14-0.22,0.33-0.38,0.58c-0.15,0.23-0.31,0.47-0.47,0.73c-0.33-0.51-0.66-1.03-1-1.54l-1.09-1.63h-0.72l2.5,3.74V8.64z"/>
	</g>
	<g>
		<path class="st0" d="M122.98,2.27h-2.62v6.44h0.62V6.14h2c0.66,0,1.17-0.18,1.53-0.52c0.36-0.35,0.54-0.82,0.54-1.42
			s-0.18-1.07-0.54-1.42C124.15,2.45,123.64,2.27,122.98,2.27z M122.98,5.57h-2V2.85h2c0.47,0,0.83,0.12,1.07,0.36
			c0.24,0.24,0.37,0.57,0.37,1c0,0.44-0.13,0.78-0.37,1.01C123.8,5.45,123.44,5.57,122.98,5.57z"/>
		<path class="st0" d="M131.25,7.89l-0.05-1.04c-0.04-0.67-0.34-1.1-0.91-1.27c0.31-0.11,0.56-0.27,0.74-0.51
			c0.21-0.27,0.32-0.63,0.32-1.05c0-0.55-0.19-0.99-0.58-1.29c-0.38-0.3-0.9-0.46-1.54-0.46h-2.67v6.44h0.62V5.89h2.15
			c0.44,0,0.75,0.09,0.94,0.27c0.19,0.18,0.29,0.49,0.31,0.91l0.04,0.81c0.01,0.34,0.08,0.61,0.21,0.81l0.01,0.02h0.67l-0.05-0.08
			C131.34,8.44,131.27,8.19,131.25,7.89z M130.7,4.05c0,0.41-0.13,0.73-0.37,0.94c-0.25,0.22-0.6,0.33-1.04,0.33h-2.1V2.85h2.04
			c0.47,0,0.83,0.1,1.09,0.31C130.57,3.35,130.7,3.65,130.7,4.05z"/>
		<path class="st0" d="M135.79,2.13c-0.91,0-1.65,0.31-2.19,0.93c-0.55,0.62-0.82,1.43-0.82,2.43c0,0.99,0.28,1.81,0.82,2.43
			c0.54,0.62,1.28,0.93,2.19,0.93c0.91,0,1.64-0.31,2.19-0.93c0.55-0.62,0.82-1.43,0.82-2.43c0-0.99-0.28-1.81-0.82-2.43
			C137.44,2.44,136.7,2.13,135.79,2.13z M138.16,5.49c0,0.84-0.21,1.52-0.64,2.02c-0.42,0.51-1,0.77-1.73,0.77
			c-0.72,0-1.29-0.26-1.72-0.77h0c-0.43-0.51-0.65-1.19-0.65-2.02s0.22-1.51,0.65-2.03c0.42-0.5,1-0.76,1.72-0.76
			c0.72,0,1.3,0.25,1.73,0.76C137.94,3.97,138.16,4.66,138.16,5.49z"/>
		<path class="st0" d="M143.47,6.86c0,0.44-0.12,0.79-0.36,1.04c-0.24,0.25-0.57,0.37-0.99,0.37c-0.41,0-0.74-0.13-0.98-0.37
			c-0.24-0.25-0.36-0.6-0.36-1.04V6.41h-0.61v0.45c0,0.6,0.18,1.09,0.52,1.44c0.35,0.36,0.83,0.55,1.43,0.55
			c0.6,0,1.08-0.18,1.44-0.55c0.35-0.35,0.53-0.84,0.53-1.44V2.27h-0.62V6.86z"/>
		<polygon class="st0" points="145.99,8.71 150.36,8.71 150.36,8.13 146.61,8.13 146.61,5.64 150.01,5.64 150.01,5.06 146.61,5.06 
			146.61,2.85 150.36,2.85 150.36,2.27 145.99,2.27 		"/>
		<path class="st0" d="M156.57,6.34c-0.08,0.6-0.31,1.08-0.7,1.42c-0.39,0.34-0.86,0.51-1.4,0.51c-0.69,0-1.25-0.25-1.65-0.76
			c-0.41-0.49-0.61-1.17-0.61-2.03s0.21-1.54,0.61-2.03c0.41-0.5,0.97-0.75,1.65-0.75c0.53,0,0.98,0.15,1.34,0.45
			c0.36,0.3,0.61,0.73,0.73,1.28l0.01,0.04h0.63l-0.01-0.06c-0.14-0.73-0.45-1.29-0.93-1.69c-0.48-0.39-1.07-0.59-1.77-0.59
			c-0.86,0-1.58,0.31-2.11,0.92c-0.53,0.62-0.8,1.44-0.8,2.45c0,1.01,0.27,1.83,0.8,2.44c0.53,0.61,1.24,0.93,2.11,0.93
			c0.71,0,1.33-0.23,1.84-0.67c0.51-0.45,0.81-1.06,0.89-1.83l0.01-0.05h-0.62L156.57,6.34z"/>
		<polygon class="st0" points="158.13,2.85 160.37,2.85 160.37,8.71 161.01,8.71 161.01,2.85 163.27,2.85 163.27,2.27 158.13,2.27 
					"/>
	</g>
	<g>
		<path class="st0" d="M82.3,15.98c0.56-0.3,0.85-0.77,0.85-1.42c0-0.49-0.17-0.9-0.51-1.21c-0.33-0.31-0.81-0.46-1.42-0.46h-2.65
			v6.44h2.77c0.64,0,1.16-0.16,1.52-0.48c0.37-0.32,0.55-0.76,0.55-1.31c0-0.38-0.11-0.71-0.31-0.99
			C82.9,16.29,82.64,16.1,82.3,15.98z M79.19,16.31h2.11c0.47,0,0.84,0.11,1.09,0.31c0.25,0.21,0.37,0.51,0.37,0.91
			c0,0.38-0.13,0.68-0.37,0.89c-0.25,0.21-0.61,0.32-1.08,0.32h-2.12V16.31z M82.19,15.43c-0.23,0.2-0.57,0.31-1.01,0.31h-1.99
			v-2.27h1.99c0.44,0,0.78,0.1,1.01,0.3c0.23,0.2,0.34,0.47,0.34,0.81C82.53,14.94,82.41,15.23,82.19,15.43z"/>
		<path class="st0" d="M89.23,16.97c0,0.64-0.16,1.12-0.48,1.44c-0.32,0.32-0.78,0.48-1.37,0.48c-0.59,0-1.05-0.16-1.36-0.48
			c-0.32-0.32-0.48-0.8-0.48-1.44v-4.08h-0.62v4.08c0,0.8,0.22,1.42,0.66,1.85c0.42,0.42,1.03,0.64,1.81,0.64
			c0.78,0,1.39-0.21,1.82-0.64c0.43-0.43,0.66-1.05,0.66-1.85v-4.08h-0.62V16.97z"/>
		<rect x="91.76" y="12.89" class="st0" width="0.62" height="6.44"/>
		<polygon class="st0" points="94.95,12.89 94.33,12.89 94.33,19.33 98.22,19.33 98.22,18.75 94.95,18.75 		"/>
		<path class="st0" d="M101.72,12.89h-2.05v6.44h2.01c1.01,0,1.8-0.29,2.36-0.86c0.55-0.57,0.83-1.36,0.83-2.36
			c0-1-0.28-1.79-0.82-2.36C103.49,13.18,102.71,12.89,101.72,12.89z M104.22,16.11c0,0.84-0.22,1.5-0.65,1.95
			c-0.43,0.46-1.07,0.69-1.89,0.69h-1.38v-5.28h1.43c0.81,0,1.43,0.23,1.86,0.69C104.01,14.61,104.22,15.27,104.22,16.11z"/>
		<polygon class="st0" points="106.53,19.33 110.9,19.33 110.9,18.75 107.16,18.75 107.16,16.25 110.55,16.25 110.55,15.68 
			107.16,15.68 107.16,13.47 110.9,13.47 110.9,12.89 106.53,12.89 		"/>
		<path class="st0" d="M117.07,18.51l-0.05-1.04c-0.04-0.67-0.34-1.1-0.91-1.27c0.31-0.11,0.56-0.27,0.74-0.51
			c0.21-0.27,0.32-0.63,0.32-1.05c0-0.55-0.19-0.99-0.58-1.29c-0.38-0.3-0.9-0.46-1.54-0.46h-2.67v6.44h0.62V16.5h2.15
			c0.44,0,0.75,0.09,0.94,0.27c0.19,0.18,0.29,0.49,0.31,0.91l0.04,0.81c0.01,0.34,0.08,0.61,0.21,0.81l0.02,0.02h0.67l-0.05-0.08
			C117.17,19.06,117.09,18.81,117.07,18.51z M116.52,14.66c0,0.41-0.13,0.73-0.37,0.94c-0.25,0.22-0.6,0.33-1.04,0.33h-2.1v-2.47
			h2.04c0.47,0,0.83,0.1,1.09,0.31C116.4,13.97,116.52,14.27,116.52,14.66z"/>
		<path class="st0" d="M123.11,16.45c-0.31-0.29-0.82-0.51-1.52-0.65l-0.62-0.12c-0.57-0.12-0.97-0.28-1.2-0.47
			c-0.22-0.19-0.33-0.45-0.33-0.79c0-0.34,0.13-0.6,0.39-0.79c0.27-0.2,0.65-0.3,1.15-0.3c1.14,0,1.72,0.44,1.77,1.34l0,0.05h0.64
			l0-0.05c-0.01-0.59-0.22-1.06-0.62-1.4c-0.4-0.34-1-0.52-1.79-0.52c-0.67,0-1.2,0.15-1.59,0.45c-0.39,0.3-0.59,0.71-0.59,1.22
			c0,0.5,0.16,0.91,0.48,1.19c0.31,0.28,0.8,0.49,1.44,0.63l0.62,0.13c0.58,0.12,1,0.28,1.24,0.48c0.24,0.19,0.35,0.44,0.35,0.78
			c0,0.4-0.15,0.71-0.44,0.94c-0.3,0.23-0.73,0.34-1.29,0.34c-1.29,0-1.93-0.51-1.97-1.56l0-0.05h-0.64l0,0.05
			c0.05,1.41,0.93,2.13,2.61,2.13c0.74,0,1.33-0.17,1.74-0.5c0.42-0.33,0.63-0.79,0.63-1.36C123.57,17.13,123.41,16.74,123.11,16.45
			z"/>
	</g>
</g>
</svg>
